<svg xmlns="http://www.w3.org/2000/svg" width="367" height="253" viewBox="0 0 367 253"><path fill="#020202" d="M116.44 143.07c-4.1 4.53-13.77 1.05-14.96-5.36-1.17-6.37 5.69-45.07 12.11-68.36.54-1.95-.2-2.41-7.75-4.81-12.72-4.06-29.45-6.18-37.62-4.79-7.96 1.37-11.26 3.62-13.15 8.99-1.29 3.63-1.26 4.32.24 6.61 1.75 2.68 5.68 4.13 13.94 5.17 4.11.52 4.75.91 4.75 2.89 0 3.6-4.19 8.96-8.03 10.28-10.84 3.73-27.38-1.77-32.12-10.67-2.82-5.31-2.5-14.33.75-20.84C39.67 52 50.19 47.56 69 47.67c12.23.07 20.66 1.5 37.77 6.39C112.42 55.68 117.47 57 118 57s1.92-1.88 3.09-4.18c3.28-6.43 11.32-14.32 17.21-16.88 18.96-8.26 38.11 6.58 29.71 23.04-4.41 8.64-12.92 12.36-28.14 12.31l-10.63-.03-2.04 7.62A147 147 0 0 0 124.48 91l-.68 4.5 5.35-5.14c6.6-6.35 10.48-8.36 16.11-8.36 7.13 0 8.16 1.39 7.45 10.1-.35 4.27-1.93 11.21-3.74 16.4-3.42 9.84-4.86 18.83-3.17 19.88 1.8 1.11 5.33-5.17 6.77-12.04 3.07-14.67 14.25-30.81 23.02-33.24 9.55-2.65 20.43.29 23.28 6.29 1.24 2.61 1.06 4.02-1.86 14.38-3.9 13.86-4.66 18.71-3.06 19.7.65.4 2.06-.08 3.15-1.06 4.41-3.99 5.96-8.34 8.85-24.79 1.6-9.12 3.19-17.04 3.54-17.6.34-.56 2.59-1.02 5-1.02 5.53 0 7.88 2.1 7.14 6.4-1.32 7.7-1.81 12.6-1.25 12.6.33 0 2.37-3.53 4.54-7.84s5.11-9.24 6.54-10.94c4.72-5.6 13.74-6.62 17.04-1.92 2.25 3.22 1.83 9.54-1.5 22.36-4.09 15.76-3.94 26.68.35 25.03 3.41-1.3 5.52-8.15 7.17-23.3.89-8.19 2.27-18.27 3.05-22.39.79-4.12 1.43-8 1.43-8.6 0-1.78-17.31-3.9-31.5-3.88-14.18.03-23.29 1.43-33.83 5.19-7.66 2.74-9.67 2.5-9.67-1.14 0-6.23 11.78-13.73 24.78-15.77 9.21-1.45 24.22-.4 39.68 2.76 8.23 1.69 13.09 2.28 13.31 1.63.19-.57 2.09-4.65 4.23-9.08 6.97-14.41 16.59-22.08 27.7-22.1 2.86-.01 6.33.5 7.7 1.13 7.27 3.31 5.51 18.76-3.19 28.07-5.91 6.31-11.12 9.32-18.89 10.9l-6.17 1.26-.6 8.56c-.33 4.72-.79 10.03-1.01 11.82-.23 1.79-.11 3.25.27 3.25.38-.01 2.2-2.92 4.04-6.49 5.09-9.84 11.52-14.64 17.58-13.12 4.13 1.04 5.57 3.33 5.57 8.85 0 4.92-.21 5.3-6.25 11.28-3.44 3.4-7.08 6.63-8.1 7.18-1.76.94-1.73 1.22.69 5.98 4.37 8.63 15.63 16.29 23.99 16.31 5.46.01 10.17-4.69 9.29-9.28-.88-4.56-4.83-7.71-9.68-7.71-3.48 0-3.94-.28-3.94-2.37 0-5.9 7.57-10.37 15.56-9.17 17.88 2.68 13.57 31.48-6.17 41.14-9.67 4.73-17.68 2.88-27.58-6.37a62 62 0 0 1-8.1-9.53l-3.21-4.95-.73 2.88c-.41 1.58-1.2 4.72-1.76 6.99-2.39 9.67-8.72 12.21-15.53 6.23l-3.58-3.15-3.2 3.04c-6.67 6.33-12.75 7.75-18.4 4.3-6.64-4.04-6.7-12.75-.23-32.63 4.31-13.24 4.52-14.41 2.68-14.4-3.28.01-10.09 15.4-15.26 34.49-1.5 5.5-3.13 10.79-3.64 11.75-1.7 3.24-8.56 1.77-12.01-2.57-1.65-2.08-1.66-2.08-5.75 1.62-5.73 5.17-10.57 5.2-15.07.07l-3.18-3.62-3.67 3.58c-7.18 6.99-15.72 8.6-21.2 3.99l-3.18-2.67-3.14 3.59c-5.44 6.2-11.34 7.56-15.6 3.59-2.2-2.05-2.29-2.64-1.73-11.25.34-5.11 1.92-14.05 3.64-20.46 3.67-13.76 3.71-14.35.79-13.94-5.19.74-11.87 15.87-15.74 35.64-1.02 5.21-2.6 10.17-3.57 11.25m65.24 60.87c-8.17 3.09-16.31-1.03-20.14-10.19-2.77-6.63-1.28-21.91 2.74-28.06.78-1.21 1.73-4.23 2.1-6.72.87-5.81 3.7-10.44 7.63-12.47 4.29-2.22 11.69-2.93 16.65-1.59 4.73 1.27 10.33 6.89 10.36 10.37.03 4.5 1.37 4.95 5.55 1.88 5.41-3.98 8.06-7.04 9.9-11.42 1.29-3.11 2.05-3.74 4.47-3.74 3.34 0 9.06 4.33 9.06 6.86 0 .93-1.08 5.95-2.4 11.16-3.73 14.73-5.92 26.71-5.21 28.56.61 1.58.78 1.58 2.56-.04 1.93-1.74 8.72-18.16 11.57-27.96.84-2.9 2.85-7.35 4.47-9.9 3.19-5.03 6.53-6.58 10.9-5.05 2.25.78 2.65 1.56 2.92 5.7.17 2.65-1.06 11.43-2.75 19.71-1.68 8.21-3.06 16.28-3.06 17.94 0 6.32 5.44 1.99 8.53-6.79 2.21-6.28 2.88-7.49 4.44-8.01 1.05-.35 1.22.83.79 5.52-1.09 12.05-9.02 21.3-18.26 21.3-4.92 0-8.97-2.3-10.48-5.95-.69-1.68-1.5-3.05-1.79-3.05s-2.67 2.01-5.29 4.46c-5.53 5.17-8.75 6.27-13.08 4.48-4.4-1.82-6.85-6.36-6.86-12.69 0-2.89-.31-5.25-.68-5.25s-2.65.95-5.04 2.11c-2.99 1.44-5.41 3.72-7.69 7.25-3.99 6.15-8.08 10.13-11.91 11.58m-55.87 37.66c-13.24 6.85-27.3-11.2-19.54-25.1 3.05-5.47 10.7-9.24 20.56-10.14 8.11-.73 8.46-1.07 9.81-9.51l.65-4.04-5.24 3.97c-9.31 7.05-16.28 7.72-21.66 2.1-2.79-2.91-2.88-3.33-2.72-12.2.13-7.05.86-11.39 3.14-18.68 1.64-5.23 2.84-9.65 2.68-9.82-.17-.18-1.62.35-3.22 1.18-3.98 2.06-9.37 8.24-11.67 13.39-2.16 4.81-3.09 5.06-8.61 2.25-6.71-3.43-7.62-7.22-2.87-11.97 9.81-9.8 33.67-15.56 40.42-9.75 3.93 3.38 4.21 9 1.05 21.4-2.94 11.56-3.23 15.32-1.19 15.32 2.12 0 7.58-6.74 10.5-12.95 2.26-4.82 2.6-6.87 2.6-15.55 0-5.5.36-10.56.81-11.25 1.12-1.73 8.17-1.57 11.71.26 3.97 2.05 4.98 4.33 4.98 11.2 0 6.05-5.27 38.25-7.01 42.82-1.79 4.71-1.29 5.29 6.76 7.81 7.65 2.4 27.24 7.04 34.47 8.16 3.54.55 3.69.73 3.18 3.79-1.21 7.31-1.4 7.71-3.67 7.69-5.44-.05-20.94-4.35-32.83-9.1-7.12-2.84-13.08-4.99-13.23-4.77-.16.21-1.83 2.87-3.71 5.89-4.12 6.63-12.41 15.66-16.15 17.6m-35.24-92.66a13 13 0 0 1-5.68 2.68C78.11 152.7 71 144.97 71 136.5c0-6.13 3.68-27.25 5.96-34.16 4.33-13.15 12.12-32.77 13.69-34.51A6.3 6.3 0 0 1 94.69 66c3.09 0 10.24 3.65 10.99 5.61.32.83-1.04 8.13-3.02 16.2a285 285 0 0 0-7.15 42.69c-.93 10.53-2.41 16.06-4.94 18.44M288.8 196.8c-.94 1.76-2.17 3.2-2.74 3.2s-2.4-2.59-4.07-5.75a143 143 0 0 0-7.48-12.13c-12.31-17.71-12.62-42.2-.54-42.1 5.14.05 10.47 3.45 13.06 8.33 2.75 5.18 3.28 5.47 5.16 2.79.72-1.03 2.89-2.83 4.81-4 7.68-4.68 16.27-1.28 16.27 6.45 0 5.02-2.06 9.02-13.51 26.15-5.09 7.63-10.03 15.31-10.96 17.06m-5.01-6.12c1.56 3.27 1.77 3.39 2.98 1.67 22.14-31.49 23.23-33.31 23.23-38.77 0-2.45-.59-3.82-1.93-4.54-6.61-3.54-14.84 2.45-17.4 12.65-1.69 6.73-3.66 6.8-3.72.14-.08-7.43-2.72-13.76-6.93-16.6-4.74-3.19-8.06-2.62-10.33 1.77-3.98 7.67.22 24.14 9.11 35.82a57 57 0 0 1 4.99 7.86m-32.33 32.99c-3.28 1.74-8.32 4.1-11.21 5.24l-5.25 2.06-.02-2.73c-.01-1.51-.87-4.61-1.91-6.89l-1.88-4.14 5.65-2.16c8.4-3.19 18.59-9.54 26.78-16.69 7.93-6.91 10.39-7.39 10.37-2-.03 8.39-10.25 20.78-22.53 27.31M138 61.09c8.07 1.49 19.64-1.68 21.97-6.03 1.71-3.21 1.25-7.87-.9-9.02-3.2-1.72-11.25-1.23-14.72.89-3.04 1.85-8.95 9.37-9.55 12.15-.19.85 1 1.6 3.2 2.01m31.67 66.24c1.09 1.1 1.87.79 4.04-1.58q4.05-4.44 6.29-12.73c2.72-10.14 5.11-15.02 8.08-16.56 1.73-.9 2.92-2.31 2.92-3.49 0-3.02-6.02-2.67-9.88.58-3.81 3.21-8.45 11.31-10.53 18.38-1.62 5.52-2.14 14.19-.92 15.4m106.89-69.59c-.64 2.07-.45 2.19 2.63 1.63 8.71-1.59 17.81-9.46 17.81-15.4 0-4.46-2.32-5.58-7.09-3.43-5.65 2.55-10.91 9.33-13.35 17.2m-162.13 171.8c.89 1.35 2.25 2.46 3.02 2.46 2.67 0 7.45-5.12 10.54-11.29 2.68-5.35 2.88-6.26 1.46-6.55-3.37-.7-8.59 1.03-11.9 3.93-4.18 3.67-5.36 8.02-3.12 11.45m68.21-53.84c4.33 4.08 8 4.37 9.38.73 1.65-4.33 1.24-7.43-.99-7.43-1.09 0-4.01-.99-6.5-2.2-3.36-1.63-4.82-1.91-5.66-1.07-1.79 1.79-.07 6.34 3.77 9.97m4.86-17.23c5.14 3.17 5.5 3.14 5.5-.52 0-4.81-3.85-7.95-9.73-7.95-5.06 0-9.27 2.07-9.27 4.56 0 1.05 1.28 1.44 4.75 1.45 3.29 0 5.98.76 8.75 2.46m-10.94 35.31c.85 1.22 2.04 2.22 2.63 2.22 1.17 0 7.81-6.69 7.81-7.87 0-.4-2.36-1.8-5.25-3.11a246 246 0 0 1-6-2.78c-1.45-.78-.75 9.32.81 11.54m23.76-17.82-.66 2.45 3.42-2.14c4.25-2.66 6.57-5.8 7.42-10.02.81-4.01-.22-4.12-5.52-.62-2.94 1.95-3.98 3.32-3.99 5.25a25 25 0 0 1-.67 5.08M283 91.52c0 1.56.22 1.58 2.25.25 3.21-2.11 6.99-7.93 5.87-9.05-2.46-2.46-8.12 3.68-8.12 8.8m-70.48 132.4c-.36 1.15-1.07 2.08-1.59 2.08-1.29 0-1.18-3.73.14-4.54 1.57-.97 2.2.1 1.45 2.46m7.48.02c0 2.19-1.56 3.58-2.43 2.17-.73-1.19.36-4.11 1.54-4.11.49 0 .89.87.89 1.94"/><path fill="#efa196" d="M283.79 190.68a57 57 0 0 0-4.99-7.86c-6.28-8.26-10.22-18.9-10.59-27.15.15.37.45-.06 1.1-1.13 5.96-9.81 12.09-8.81 9.79 1.59l-.97 4.37 1.95-2.5c2.88-3.7 4.36-5.5 4.69-6.8a25 25 0 0 1 1.97 7.33q-.23-.51-.62-.53c-.94 0-2.08 3.37-2.11 6.22q0 1.7 1.49 1.14c.73-.28 1.25-1.82 1.45-3.42.08 6.55 2.04 6.44 3.72-.25 2.41-9.61 9.85-15.48 16.23-13.18l-.36-.09c-3.36-.84-6.75.08-9.66 2.64-2.14 1.88-2.18 2.05-.38 1.63 1.1-.25 2.67-.73 3.5-1.07a3.7 3.7 0 0 1 3 .36c1.33.84 1.3 1.51-.2 5.74l-1.69 4.78 2.69-3.1c3.72-4.27 5.61-6.74 5.9-8.3q.3 1 .3 2.48c0 5.27-1.01 7.15-20.94 35.51.83-1.73 1.33-3.35.89-3.62-.52-.32-.95-1.41-.95-2.41 0-2.27-4.89-3.51-5.69-1.44-.29.76-1.36 1.38-2.39 1.38-1.71 0-1.66.29.57 3.58 1.33 1.96 2.7 4.44 3.04 5.51l.09.26q-.34-.64-.83-1.67m-61.33 51.46c-4.84 2.79-9.46 3.12-14.06.99-15.07-6.97-10.56-29.13 5.93-29.13 2.83 0 6.1.73 7.83 1.75 9.43 5.55 9.61 21.02.3 26.39m73.06-55.98c1.34-2.05 2.78-4.24 4.24-6.42 11.45-17.13 13.51-21.13 13.51-26.15a8.15 8.15 0 0 0-5.08-7.81c.8.25 1.55.55 2.16.86 1.73.91 3.82 1.98 4.65 2.39 2.82 1.39 1.68 10.24-2.14 16.58-4.64 7.69-11.98 16.7-14.54 17.84-.66.29-1.7 1.32-2.8 2.71m-20.09-8.63c2.19 3.34 2.67 2.86 1.9-1.9-.55-3.37-.78-3.61-2.13-2.26s-1.32 1.79.23 4.16m-62.91 46.39c.75-2.36.12-3.43-1.45-2.46-1.32.81-1.43 4.54-.14 4.54.52 0 1.23-.93 1.59-2.08m58-57.23c.62 1.41.95.94 1.53-2.19.89-4.82.44-5.68-1.14-2.19-.66 1.45-.83 3.35-.39 4.38M220 223.94c0-1.07-.4-1.94-.89-1.94-1.18 0-2.27 2.92-1.54 4.11.87 1.41 2.43.02 2.43-2.17m68.8-27.14a90 90 0 0 1 2.66-4.35l-3.15 5.3a7 7 0 0 1-1.61 1.91c.62-.53 1.43-1.61 2.1-2.86m7.31-49.09c-1.66 1.13-3.31 2.56-3.92 3.43.84-1.19 2.27-2.4 3.92-3.43M286.03 200h-.04c-.53 0-2.33-2.59-4-5.75 1.64 3.11 3.44 5.67 4.04 5.75m-17.3-50.41q.35-1.42.96-2.59l.09-.17q-.62 1.3-1.05 2.76m35.29-4.58-.17-.01z"/><path fill="#fefefe" d="M0 126.5V0h367v253H0zm222.46 115.64c9.31-5.37 9.13-20.84-.3-26.39-1.73-1.02-5-1.75-7.83-1.75-16.49 0-21 22.16-5.93 29.13 4.6 2.13 9.22 1.8 14.06-.99m-96.65-.54c3.74-1.94 12.03-10.97 16.15-17.6 1.88-3.02 3.55-5.68 3.71-5.89.15-.22 6.11 1.93 13.23 4.77 11.89 4.75 27.39 9.05 32.83 9.1 2.27.02 2.46-.38 3.67-7.69.51-3.06.36-3.24-3.18-3.79-7.23-1.12-26.82-5.76-34.47-8.16-8.05-2.52-8.55-3.1-6.76-7.81 1.74-4.57 7.01-36.77 7.01-42.82 0-6.87-1.01-9.15-4.98-11.2-3.54-1.83-10.59-1.99-11.71-.26-.45.69-.81 5.75-.81 11.25 0 8.68-.34 10.73-2.6 15.55-2.92 6.21-8.38 12.95-10.5 12.95-2.04 0-1.75-3.76 1.19-15.32 3.16-12.4 2.88-18.02-1.05-21.4-6.75-5.81-30.61-.05-40.42 9.75-4.75 4.75-3.84 8.54 2.87 11.97 5.52 2.81 6.45 2.56 8.61-2.25 2.3-5.15 7.69-11.33 11.67-13.39 1.6-.83 3.05-1.36 3.22-1.18.16.17-1.04 4.59-2.68 9.82-2.28 7.29-3.01 11.63-3.14 18.68-.16 8.87-.07 9.29 2.72 12.2 5.38 5.62 12.35 4.95 21.66-2.1l5.24-3.97-.65 4.04c-1.35 8.44-1.7 8.78-9.81 9.51-9.86.9-17.51 4.67-20.56 10.14-7.76 13.9 6.3 31.95 19.54 25.1m125.65-17.93c12.28-6.53 22.5-18.92 22.53-27.31.02-5.39-2.44-4.91-10.37 2-8.19 7.15-18.38 13.5-26.78 16.69l-5.65 2.16 1.88 4.14c1.04 2.28 1.9 5.38 1.91 6.89l.02 2.73 5.25-2.06c2.89-1.14 7.93-3.5 11.21-5.24m-69.78-19.73c3.83-1.45 7.92-5.43 11.91-11.58 2.28-3.53 4.7-5.81 7.69-7.25 2.39-1.16 4.66-2.11 5.04-2.11s.68 2.36.68 5.25c.01 6.33 2.46 10.87 6.86 12.69 4.33 1.79 7.55.69 13.08-4.48 2.62-2.45 5-4.46 5.29-4.46s1.1 1.37 1.79 3.05c1.51 3.65 5.56 5.95 10.48 5.95 9.24 0 17.17-9.25 18.26-21.3.43-4.69.26-5.87-.79-5.52-1.56.52-2.23 1.73-4.44 8.01-3.09 8.78-8.53 13.11-8.53 6.79 0-1.66 1.38-9.73 3.06-17.94 1.69-8.28 2.92-17.06 2.75-19.71-.27-4.14-.67-4.92-2.92-5.7-4.37-1.53-7.71.02-10.9 5.05-1.62 2.55-3.63 7-4.47 9.9-2.85 9.8-9.64 26.22-11.57 27.96-1.78 1.62-1.95 1.62-2.56.04-.71-1.85 1.48-13.83 5.21-28.56 1.32-5.21 2.4-10.23 2.4-11.16 0-2.53-5.72-6.86-9.06-6.86-2.42 0-3.18.63-4.47 3.74-1.84 4.38-4.49 7.44-9.9 11.42-4.18 3.07-5.52 2.62-5.55-1.88-.03-3.48-5.63-9.1-10.36-10.37-4.96-1.34-12.36-.63-16.65 1.59-3.93 2.03-6.76 6.66-7.63 12.47-.37 2.49-1.32 5.51-2.1 6.72-4.02 6.15-5.51 21.43-2.74 28.06 3.83 9.16 11.97 13.28 20.14 10.19m106.63-6.19a963 963 0 0 0 4.62-7.8c1.79-3.06 4.21-5.98 5.39-6.5 2.56-1.14 9.9-10.15 14.54-17.84 3.82-6.34 4.96-15.19 2.14-16.58-.83-.41-2.92-1.48-4.65-2.39a17 17 0 0 0-6.5-1.64c-3.62.01-9.55 3.13-11.66 6.14-1.88 2.68-2.41 2.39-5.16-2.79-2.59-4.88-7.92-8.28-13.06-8.33-12.08-.1-11.77 24.39.54 42.1a143 143 0 0 1 7.48 12.13c1.67 3.16 3.47 5.75 4 5.75s1.58-1.01 2.32-2.25M90.57 148.94c2.53-2.38 4.01-7.91 4.94-18.44a285 285 0 0 1 7.15-42.69c1.98-8.07 3.34-15.37 3.02-16.2-.75-1.96-7.9-5.61-10.99-5.61-1.31 0-3.13.82-4.04 1.83-1.57 1.74-9.36 21.36-13.69 34.51-2.28 6.91-5.96 28.03-5.96 34.16 0 8.47 7.11 16.2 13.89 15.12 1.87-.3 4.42-1.51 5.68-2.68m25.87-5.87c.97-1.08 2.55-6.04 3.57-11.25 3.87-19.77 10.55-34.9 15.74-35.64 2.92-.41 2.88.18-.79 13.94-1.72 6.41-3.3 15.35-3.64 20.46-.56 8.61-.47 9.2 1.73 11.25 4.26 3.97 10.16 2.61 15.6-3.59l3.14-3.59 3.18 2.67c5.48 4.61 14.02 3 21.2-3.99l3.67-3.58 3.18 3.62c4.5 5.13 9.34 5.1 15.07-.07 4.09-3.7 4.1-3.7 5.75-1.62 3.45 4.34 10.31 5.81 12.01 2.57.51-.96 2.14-6.25 3.64-11.75 5.17-19.09 11.98-34.48 15.26-34.49 1.84-.01 1.63 1.16-2.68 14.4-6.47 19.88-6.41 28.59.23 32.63 5.65 3.45 11.73 2.03 18.4-4.3l3.2-3.04 3.58 3.15c6.81 5.98 13.14 3.44 15.53-6.23.56-2.27 1.35-5.41 1.76-6.99l.73-2.88 3.21 4.95a62 62 0 0 0 8.1 9.53c9.9 9.25 17.91 11.1 27.58 6.37 19.74-9.66 24.05-38.46 6.17-41.14-7.99-1.2-15.56 3.27-15.56 9.17 0 2.09.46 2.37 3.94 2.37 4.85 0 8.8 3.15 9.68 7.71.88 4.59-3.83 9.29-9.29 9.28-8.36-.02-19.62-7.68-23.99-16.31-2.42-4.76-2.45-5.04-.69-5.98 1.02-.55 4.66-3.78 8.1-7.18 6.04-5.98 6.25-6.36 6.25-11.28 0-5.52-1.44-7.81-5.57-8.85-6.06-1.52-12.49 3.28-17.58 13.12-1.84 3.57-3.66 6.48-4.04 6.49s-.5-1.46-.27-3.25.68-7.1 1.01-11.82l.6-8.56 6.17-1.26c7.77-1.58 12.98-4.59 18.89-10.9 8.7-9.31 10.46-24.76 3.19-28.07-1.37-.63-4.84-1.14-7.7-1.13-11.11.02-20.73 7.69-27.7 22.1a218 218 0 0 0-4.23 9.08c-.22.65-5.08.06-13.31-1.63-15.46-3.16-30.47-4.21-39.68-2.76-13 2.04-24.78 9.54-24.78 15.77 0 3.64 2.01 3.88 9.67 1.14 10.54-3.76 19.65-5.16 33.83-5.19 14.19-.02 31.5 2.1 31.5 3.88 0 .6-.64 4.48-1.43 8.6s-2.16 14.2-3.05 22.39c-1.65 15.15-3.76 22-7.17 23.3-4.29 1.65-4.44-9.27-.35-25.03 3.33-12.82 3.75-19.14 1.5-22.36-3.3-4.7-12.32-3.68-17.04 1.92-1.43 1.7-4.37 6.62-6.54 10.94S220.71 98 220.38 98c-.56 0-.07-4.9 1.25-12.6.74-4.3-1.61-6.4-7.14-6.4-2.41 0-4.66.46-5 1.02-.35.56-1.94 8.48-3.54 17.6-2.89 16.45-4.44 20.8-8.85 24.79-1.09.98-2.5 1.46-3.15 1.06-1.6-.99-.84-5.84 3.06-19.7 2.92-10.36 3.1-11.77 1.86-14.38-2.85-6-13.73-8.94-23.28-6.29-8.77 2.43-19.95 18.57-23.02 33.24-1.44 6.87-4.97 13.15-6.77 12.04-1.69-1.05-.25-10.04 3.17-19.88 1.81-5.19 3.39-12.13 3.74-16.4.71-8.71-.32-10.1-7.45-10.1-5.63 0-9.51 2.01-16.11 8.36l-5.35 5.14.68-4.5c.38-2.47 1.6-7.93 2.72-12.12l2.04-7.62 10.63.03c15.22.05 23.73-3.67 28.14-12.31 8.4-16.46-10.75-31.3-29.71-23.04-5.89 2.56-13.93 10.45-17.21 16.88-1.17 2.3-2.56 4.18-3.09 4.18s-5.58-1.32-11.23-2.94C89.66 49.17 81.23 47.74 69 47.67 50.19 47.56 39.67 52 34.6 62.18c-3.25 6.51-3.57 15.53-.75 20.84 4.74 8.9 21.28 14.4 32.12 10.67C69.81 92.37 74 87.01 74 83.41c0-1.98-.64-2.37-4.75-2.89-8.26-1.04-12.19-2.49-13.94-5.17-1.5-2.29-1.53-2.98-.24-6.61 1.89-5.37 5.19-7.62 13.15-8.99 8.17-1.39 24.9.73 37.62 4.79 7.55 2.4 8.29 2.86 7.75 4.81-6.42 23.29-13.28 61.99-12.11 68.36 1.19 6.41 10.86 9.89 14.96 5.36m-2.01 86.47c-2.24-3.43-1.06-7.78 3.12-11.45 3.31-2.9 8.53-4.63 11.9-3.93 1.42.29 1.22 1.2-1.46 6.55-3.09 6.17-7.87 11.29-10.54 11.29-.77 0-2.13-1.11-3.02-2.46m62.13-35.76c-1.56-2.22-2.26-12.32-.81-11.54.41.22 3.11 1.47 6 2.78s5.25 2.71 5.25 3.11c0 1.18-6.64 7.87-7.81 7.87-.59 0-1.78-1-2.63-2.22m6.08-18.08c-3.84-3.63-5.56-8.18-3.77-9.97.84-.84 2.3-.56 5.66 1.07 2.49 1.21 5.41 2.2 6.5 2.2 2.23 0 2.64 3.1.99 7.43-1.38 3.64-5.05 3.35-9.38-.73m17.68.26c.36-1.35.66-3.64.67-5.08.01-1.93 1.05-3.3 3.99-5.25 5.3-3.5 6.33-3.39 5.52.62-.85 4.22-3.17 7.36-7.42 10.02l-3.42 2.14zm-12.82-17.49a16 16 0 0 0-8.75-2.46c-3.47-.01-4.75-.4-4.75-1.45 0-2.49 4.21-4.56 9.27-4.56 5.88 0 9.73 3.14 9.73 7.95 0 3.66-.36 3.69-5.5.52m97.03 33.62c-.34-1.07-1.71-3.55-3.04-5.51-2.23-3.29-2.28-3.58-.57-3.58 1.03 0 2.1-.62 2.39-1.38.8-2.07 5.69-.83 5.69 1.44 0 1 .43 2.09.95 2.41.92.57-2.25 6.98-3.98 8.05-.45.28-1.1-.36-1.44-1.43m-9.1-14.56c-1.55-2.37-1.58-2.81-.23-4.16s1.58-1.11 2.13 2.26c.77 4.76.29 5.24-1.9 1.9m-4.91-10.84c-.44-1.03-.27-2.93.39-4.38 1.58-3.49 2.03-2.63 1.14 2.19-.58 3.13-.91 3.6-1.53 2.19m13.49-2.47c.03-2.85 1.17-6.22 2.11-6.22 1.56 0 .99 6.74-.62 7.36q-1.49.55-1.49-1.14m18.79-6.5c1.5-4.23 1.53-4.9.2-5.74a3.7 3.7 0 0 0-3-.36c-.83.34-2.4.82-3.5 1.07-1.8.42-1.76.25.38-1.63 2.91-2.56 6.3-3.48 9.66-2.64 4.81 1.21 4.42 2.76-2.74 10.98l-2.69 3.1zm-23.7-1.59c2.3-10.4-3.83-11.4-9.79-1.59-1.11 1.82-1.2 1.77-1.25-.82-.08-3.66 2.44-9.59 4.4-10.34 2.54-.98 6.61.54 9.67 3.59 3.85 3.86 3.95 3.33-2.05 11.03l-1.95 2.5zm-109.43-28.8c-1.22-1.21-.7-9.88.92-15.4 2.08-7.07 6.72-15.17 10.53-18.38 3.86-3.25 9.88-3.6 9.88-.58 0 1.18-1.19 2.59-2.92 3.49-2.97 1.54-5.36 6.42-8.08 16.56q-2.24 8.3-6.29 12.73c-2.17 2.37-2.95 2.68-4.04 1.58M283 91.52c0-5.12 5.66-11.26 8.12-8.8 1.12 1.12-2.66 6.94-5.87 9.05-2.03 1.33-2.25 1.31-2.25-.25M138 61.09c-2.2-.41-3.39-1.16-3.2-2.01.6-2.78 6.51-10.3 9.55-12.15 3.47-2.12 11.52-2.61 14.72-.89 2.15 1.15 2.61 5.81.9 9.02-2.33 4.35-13.9 7.52-21.97 6.03m138.56-3.35c2.44-7.87 7.7-14.65 13.35-17.2 4.77-2.15 7.09-1.03 7.09 3.43 0 5.94-9.1 13.81-17.81 15.4-3.08.56-3.27.44-2.63-1.63"/></svg>